<?xml version="1.0" encoding="UTF-8"?>
<svg id="Layer_1" xmlns="http://www.w3.org/2000/svg" version="1.1" viewBox="0 0 720 720">
  <!-- Generator: Adobe Illustrator 29.7.1, SVG Export Plug-In . SVG Version: 2.1.1 Build 8)  -->
  <defs>
    <style>
      .st0 {
        fill: #f47b20;
        stroke: #010101;
        stroke-linecap: round;
        stroke-linejoin: round;
        stroke-width: 11.9px;
      }

      .st1 {
        font-family: Poppins-Bold, Poppins;
        font-size: 91.47px;
        font-weight: 700;
      }

      .st1, .st2 {
        fill: #010101;
      }
    </style>
  </defs>
  <path class="st2" d="M274.91,429.17l-91.48-120.17c-6.56-8.62-20.31-3.98-20.31,6.85v106.46c0,6.25-5.06,11.31-11.31,11.31h-79.7c-6.25,0-11.31-5.06-11.31-11.31V102.29c0-6.25,5.06-11.31,11.31-11.31h79.7c6.25,0,11.31,5.06,11.31,11.31v105.43c0,10.84,13.77,15.47,20.32,6.84l90.5-119.12c2.14-2.82,5.47-4.47,9.01-4.47h97.41c9.46,0,14.74,10.91,8.87,18.33l-102.22,129.28c-9.41,11.9-9.43,28.71-.04,40.63l107.21,136.1c5.85,7.42.56,18.31-8.89,18.31h-101.38c-3.53,0-6.86-1.65-9-4.46Z"/>
  <text class="st1" transform="translate(52.79 533.01)"><tspan x="0" y="0" xml:space="preserve">Design   +</tspan><tspan x="0" y="101.14">Development</tspan></text>
  <path class="st0" d="M318.43,277.75c-7.14-8.9-7.14-21.56,0-30.46,10.31-7.49,111.05-150.49,132.06-150.06,0,0,86.73,0,86.73,0,13.11,0,20.37,15.19,12.14,25.39l-101.6,126.02c-6.53,8.1-6.53,19.65,0,27.75l105.66,131.06c6.6,8.18.77,20.36-9.74,20.36h-93.2c-7.38,0-132.06-150.06-132.06-150.06Z"/>
</svg>